<svg width="21" height="20" viewBox="0 0 21 20" fill="none" xmlns="http://www.w3.org/2000/svg">
<path fill-rule="evenodd" clip-rule="evenodd" d="M10.293 0C4.77298 0 0.302979 4.48 0.302979 10C0.302979 15.52 4.77298 20 10.293 20C15.823 20 20.303 15.52 20.303 10C20.303 4.48 15.823 0 10.293 0ZM11.303 11V5H9.30298V11H11.303ZM11.303 15V13H9.30298V15H11.303ZM2.30298 10C2.30298 14.42 5.88298 18 10.303 18C14.723 18 18.303 14.42 18.303 10C18.303 5.58 14.723 2 10.303 2C5.88298 2 2.30298 5.58 2.30298 10Z" fill="#FF0000"/>
</svg>
