<svg width="26" height="26" viewBox="0 0 26 26" fill="none" xmlns="http://www.w3.org/2000/svg">
<path d="M5.6735 15.4705L4.7824 18.7971L1.52545 18.866C0.5521 17.0606 0 14.9951 0 12.8001C0 10.6775 0.5162 8.6759 1.4312 6.91345H1.4319L4.3315 7.44505L5.6017 10.3273C5.33585 11.1023 5.19095 11.9343 5.19095 12.8001C5.19105 13.7397 5.36125 14.6399 5.6735 15.4705Z" fill="#FBBB00"/>
<path d="M25.3765 10.4088C25.5235 11.1831 25.6001 11.9828 25.6001 12.8C25.6001 13.7164 25.5038 14.6103 25.3202 15.4726C24.6971 18.4067 23.069 20.9688 20.8135 22.7819L20.8128 22.7812L17.1606 22.5949L16.6437 19.3681C18.1403 18.4904 19.3099 17.1169 19.926 15.4726H13.0815V10.4088H20.0259H25.3765Z" fill="#518EF8"/>
<path d="M20.8126 22.7812L20.8133 22.7819C18.6197 24.5451 15.8332 25.6 12.7999 25.6C7.92539 25.6 3.68734 22.8755 1.52539 18.866L5.67344 15.4705C6.75439 18.3554 9.53734 20.409 12.7999 20.409C14.2023 20.409 15.5161 20.0299 16.6434 19.3681L20.8126 22.7812Z" fill="#28B446"/>
<path d="M20.9702 2.9468L16.8235 6.3416C15.6568 5.6123 14.2776 5.191 12.8 5.191C9.4635 5.191 6.6285 7.33885 5.6017 10.3272L1.43185 6.9134H1.43115C3.56145 2.80615 7.85295 0 12.8 0C15.9057 0 18.7534 1.1063 20.9702 2.9468Z" fill="#F14336"/>
</svg>
