<svg width="104" height="132" viewBox="0 0 104 132" fill="none" xmlns="http://www.w3.org/2000/svg">
<path d="M52.0001 0.375C38.3298 0.391127 25.224 5.82877 15.5577 15.4951C5.89132 25.1615 0.453682 38.2672 0.437555 51.9375C0.421182 63.1089 4.07028 73.9771 10.8251 82.875C10.8251 82.875 12.2313 84.7266 12.461 84.9938L52.0001 131.625L91.5579 84.9703C91.7641 84.7219 93.1751 82.875 93.1751 82.875L93.1797 82.8609C99.9312 73.9669 103.579 63.1037 103.563 51.9375C103.546 38.2672 98.1088 25.1615 88.4424 15.4951C78.7761 5.82877 65.6703 0.391127 52.0001 0.375ZM52.0001 70.6875C48.2917 70.6875 44.6665 69.5878 41.5831 67.5276C38.4997 65.4673 36.0965 62.5389 34.6773 59.1128C33.2582 55.6867 32.8869 51.9167 33.6103 48.2796C34.3338 44.6424 36.1196 41.3015 38.7418 38.6792C41.364 36.057 44.705 34.2712 48.3421 33.5478C51.9793 32.8243 55.7493 33.1956 59.1754 34.6148C62.6015 36.0339 65.5298 38.4371 67.5901 41.5206C69.6504 44.604 70.7501 48.2291 70.7501 51.9375C70.7439 56.9084 68.7664 61.6739 65.2515 65.1889C61.7365 68.7039 56.971 70.6813 52.0001 70.6875Z" fill="#1E3A8A"/>
</svg>
