<svg width="140" height="140" viewBox="0 0 140 140" fill="none" xmlns="http://www.w3.org/2000/svg">
<path d="M25.687 14.2383C25.687 14.2383 27.5507 21.1612 32.9177 21.4822C32.9177 21.4822 25.7537 23.9568 25.6328 29.2489C25.6328 29.2489 24.223 21.8267 18.5645 21.5604C18.5645 21.5609 25.1543 20.5623 25.687 14.2383Z" fill="#D7E057"/>
<path d="M25.6323 30.069C25.2424 30.069 24.9022 29.7922 24.8273 29.4034C24.8142 29.3356 23.4634 22.6123 18.5262 22.3804C18.1051 22.3602 17.7671 22.0244 17.7453 21.6033C17.7234 21.1817 18.0247 20.8131 18.4414 20.7502C18.6826 20.7125 24.3991 19.7565 24.8694 14.1697C24.9028 13.7732 25.2161 13.4582 25.6126 13.4221C26.0058 13.3876 26.3744 13.6403 26.4789 14.0247C26.4964 14.0882 28.2611 20.3827 32.967 20.6643C33.3574 20.6879 33.6763 20.9837 33.7304 21.3709C33.784 21.7581 33.556 22.13 33.1868 22.2585C33.1206 22.2815 26.5598 24.6161 26.4531 29.2689C26.4433 29.6883 26.1196 30.0323 25.7012 30.0668C25.6782 30.0679 25.6547 30.069 25.6323 30.069ZM21.3989 21.4666C23.5197 22.5434 24.806 24.609 25.5475 26.3212C26.656 24.1222 28.7971 22.6096 30.4415 21.7127C28.1807 20.7054 26.7321 18.6218 25.8839 16.9423C24.9039 19.3267 23.0018 20.6988 21.3989 21.4666Z" fill="#3A312A"/>
<path d="M13.8191 23.5244C13.8191 23.5244 15.1376 28.4211 18.9334 28.6481C18.9334 28.6481 13.8661 30.3986 13.7808 34.1414C13.7808 34.1414 12.7833 28.8914 8.78125 28.7033C8.78125 28.7033 13.4423 27.9973 13.8191 23.5244Z" fill="#D7E057"/>
<path d="M13.7817 34.962C13.3917 34.962 13.0505 34.6847 12.9767 34.2948C12.9679 34.2499 12.0448 29.6781 8.7444 29.5228C8.32331 29.5025 7.98588 29.1667 7.96401 28.7457C7.94213 28.324 8.24346 27.9554 8.66018 27.892C8.82206 27.8663 12.6874 27.2122 13.0035 23.4552C13.0368 23.0582 13.3507 22.7426 13.7472 22.7071C14.1448 22.6737 14.5085 22.9258 14.6124 23.3097C14.6239 23.3529 15.8308 27.6404 18.9835 27.8291C19.3746 27.8526 19.6939 28.1485 19.747 28.5362C19.8006 28.9239 19.572 29.2953 19.2023 29.4232C19.158 29.4385 14.6731 31.0376 14.602 34.1603C14.5921 34.5797 14.2678 34.9242 13.8495 34.9592C13.8271 34.9609 13.8041 34.962 13.7817 34.962ZM11.3103 28.6576C12.4626 29.3866 13.237 30.5137 13.7423 31.5451C14.4948 30.3239 15.6646 29.4276 16.6757 28.8255C15.425 28.1315 14.5517 26.9935 13.9736 25.9686C13.3321 27.2193 12.3253 28.0883 11.3103 28.6576Z" fill="#3A312A"/>
<path d="M13.8191 8.94629C13.8191 8.94629 15.1376 13.843 18.9334 14.07C18.9334 14.07 13.8661 15.8205 13.7808 19.5633C13.7808 19.5633 12.7833 14.3133 8.78125 14.1252C8.78125 14.1257 13.4423 13.4197 13.8191 8.94629Z" fill="#D7E057"/>
<path d="M13.7808 20.3839C13.3903 20.3839 13.0496 20.1066 12.9753 19.7167C12.9665 19.6718 12.0434 15.1 8.74299 14.9446C8.32135 14.9244 7.98393 14.5886 7.96206 14.1675C7.94018 13.7459 8.24151 13.3773 8.65823 13.3144C8.8201 13.2887 12.6854 12.6346 13.0015 8.87706C13.0349 8.48003 13.3488 8.16448 13.7453 8.12894C14.1428 8.09558 14.5065 8.34714 14.6104 8.73159C14.6219 8.7748 15.8289 13.0628 18.9821 13.2515C19.3726 13.275 19.6925 13.5714 19.7456 13.9592C19.7992 14.3469 19.5706 14.7182 19.2009 14.8462C19.1566 14.8615 14.6717 16.4606 14.6006 19.5832C14.5907 20.0027 14.2664 20.3472 13.8481 20.3822C13.8262 20.3833 13.8032 20.3839 13.7808 20.3839ZM11.3095 14.08C12.4617 14.809 13.2361 15.9367 13.7414 16.9675C14.4939 15.7464 15.6637 14.85 16.6754 14.2485C15.4247 13.5545 14.5514 12.4164 13.9733 11.3916C13.3313 12.6417 12.3245 13.5107 11.3095 14.08Z" fill="#3A312A"/>
<path d="M70.8001 23.7393L25.7469 68.7925C23.5583 70.9811 23.5583 74.5314 25.7469 76.72L63.8368 114.81C66.0254 116.998 69.5757 116.998 71.7643 114.81L129.576 56.9986C131.764 54.81 131.764 51.2597 129.576 49.0711L91.4857 10.9813C89.2971 8.7927 85.7473 8.7927 83.5582 10.9813L76.3493 18.1902L70.8001 23.7393Z" fill="#F16C7A"/>
<path d="M67.7999 117.268C66.1543 117.268 64.5088 116.642 63.2559 115.389L25.166 77.2996C22.6608 74.7943 22.6608 70.7174 25.166 68.2121L70.2198 23.1589C70.5403 22.8385 71.0592 22.8385 71.3797 23.1589C71.7002 23.4794 71.7002 23.9989 71.3797 24.3189L26.326 69.3721C25.4225 70.2755 24.9249 71.4775 24.9249 72.7556C24.9249 74.0342 25.4225 75.2357 26.326 76.1396L64.4158 114.229C66.2817 116.095 69.3174 116.095 71.1834 114.229L128.995 56.4177C129.899 55.5143 130.396 54.3122 130.396 53.0336C130.396 51.755 129.899 50.5536 128.995 49.6501L90.9053 11.5603C90.0019 10.6568 88.7999 10.1592 87.5224 10.1592C86.2438 10.1592 85.0423 10.6568 84.1383 11.5603L76.9288 18.7692C76.6084 19.0896 76.0894 19.0896 75.7689 18.7692C75.4485 18.4487 75.4485 17.9292 75.7689 17.6093L82.9784 10.4004C84.1919 9.18684 85.8052 8.51855 87.5224 8.51855C89.239 8.51855 90.8523 9.18684 92.0658 10.4004L130.155 48.4902C132.66 50.9954 132.66 55.0724 130.155 57.5776L72.3433 115.389C71.091 116.642 69.4454 117.268 67.7999 117.268Z" fill="#3A312A"/>
<path d="M95.8359 15.3311L30.0977 81.0693L38.7337 89.7054L104.472 23.9672L95.8359 15.3311Z" fill="#87796F"/>
<path d="M38.7342 90.5266C38.5242 90.5266 38.3142 90.4468 38.1539 90.2866L29.5177 81.6503C29.1972 81.3304 29.1972 80.8103 29.5177 80.4904L95.257 14.7511C95.5775 14.4306 96.0965 14.4306 96.4169 14.7511L105.053 23.3873C105.374 23.7073 105.374 24.2273 105.053 24.5473L39.3144 90.286C39.1542 90.4463 38.9442 90.5266 38.7342 90.5266ZM31.2579 81.0701L38.7342 88.5464L103.313 23.9676L95.8367 16.4912L31.2579 81.0701Z" fill="#3A312A"/>
<path d="M8.9375 105.918V125.448C8.9375 128.544 11.4471 131.054 14.543 131.054H96.3008C99.3966 131.054 101.906 128.544 101.906 125.448V71.5811C101.906 68.4852 99.3966 65.9756 96.3008 65.9756H14.543C11.4471 65.9756 8.9375 68.4852 8.9375 71.5811V97.9125V105.918Z" fill="#FCE8CB"/>
<path d="M96.3008 131.874H14.543C10.9998 131.874 8.11719 128.991 8.11719 125.448V105.918C8.11719 105.465 8.48414 105.098 8.9375 105.098C9.39086 105.098 9.75781 105.465 9.75781 105.918V125.448C9.75781 128.087 11.9043 130.233 14.543 130.233H96.3008C98.9395 130.233 101.086 128.087 101.086 125.448V71.5811C101.086 68.9424 98.9395 66.7959 96.3008 66.7959H14.543C11.9043 66.7959 9.75781 68.9424 9.75781 71.5811V97.9125C9.75781 98.3659 9.39086 98.7328 8.9375 98.7328C8.48414 98.7328 8.11719 98.3659 8.11719 97.9125V71.5811C8.11719 68.0379 10.9998 65.1553 14.543 65.1553H96.3008C99.844 65.1553 102.727 68.0379 102.727 71.5811V125.448C102.727 128.991 99.8434 131.874 96.3008 131.874Z" fill="#3A312A"/>
<path d="M28.3658 95.2062C33.9461 95.2062 38.4698 90.6824 38.4698 85.1021C38.4698 79.5218 33.9461 74.998 28.3658 74.998C22.7855 74.998 18.2617 79.5218 18.2617 85.1021C18.2617 90.6824 22.7855 95.2062 28.3658 95.2062Z" fill="#D7E057"/>
<path d="M28.3658 96.0265C22.342 96.0265 17.4414 91.1259 17.4414 85.1021C17.4414 79.0783 22.342 74.1777 28.3658 74.1777C34.3896 74.1777 39.2902 79.0783 39.2902 85.1021C39.2902 91.1259 34.3896 96.0265 28.3658 96.0265ZM28.3658 75.8189C23.2465 75.8189 19.082 79.9834 19.082 85.1027C19.082 90.222 23.2465 94.3864 28.3658 94.3864C33.4845 94.3864 37.6495 90.222 37.6495 85.1027C37.6495 79.9834 33.4845 75.8189 28.3658 75.8189Z" fill="#3A312A"/>
<path d="M62.0692 120.167H19.7832C19.3298 120.167 18.9629 119.8 18.9629 119.347C18.9629 118.893 19.3298 118.526 19.7832 118.526H62.0692C62.5226 118.526 62.8895 118.893 62.8895 119.347C62.8895 119.8 62.5226 120.167 62.0692 120.167Z" fill="#3A312A"/>
<path d="M62.0692 110.323H19.7832C19.3298 110.323 18.9629 109.956 18.9629 109.503C18.9629 109.05 19.3298 108.683 19.7832 108.683H62.0692C62.5226 108.683 62.8895 109.05 62.8895 109.503C62.8895 109.956 62.5226 110.323 62.0692 110.323Z" fill="#3A312A"/>
<path d="M128.865 101.278H127.892C127.323 98.787 126.329 96.4578 124.992 94.3699L125.707 93.6546C126.531 92.8304 126.531 91.4944 125.707 90.6703L121.907 86.8706C121.083 86.0464 119.747 86.0464 118.923 86.8706L118.181 87.6127C116.097 86.3002 113.778 85.3284 111.3 84.7761V83.7129C111.3 82.5475 110.355 81.6025 109.189 81.6025H103.816C102.65 81.6025 101.705 82.5475 101.705 83.7129V84.7761C100.392 85.1299 96.9076 86.3002 94.824 87.6127L94.0819 86.8706C93.2577 86.0464 91.9217 86.0464 91.097 86.8706L87.2973 90.6703C86.4732 91.4944 86.4732 92.8304 87.2973 93.6546L88.0127 94.3699C86.675 96.4578 85.6819 98.787 85.112 101.278H84.1397C82.9743 101.278 82.0293 102.223 82.0293 103.388V108.762C82.0293 109.927 82.9743 110.872 84.1397 110.872H85.0612C85.6091 113.394 86.5902 115.754 87.923 117.87L87.2973 118.496C86.4732 119.32 86.4732 120.656 87.2973 121.481L91.097 125.28C91.9212 126.104 93.2577 126.104 94.0819 125.28L94.6807 124.682C96.8009 126.04 99.1706 127.042 101.705 127.607V128.438C101.705 129.603 102.65 130.548 103.815 130.548H109.189C110.354 130.548 111.299 129.603 111.299 128.438V127.607C113.834 127.042 116.203 126.039 118.323 124.682L118.922 125.28C119.746 126.104 121.082 126.104 121.906 125.28L125.706 121.481C126.53 120.657 126.53 119.32 125.706 118.496L125.08 117.87C126.413 115.754 127.394 113.394 127.942 110.872H128.864C130.029 110.872 130.974 109.927 130.974 108.762V103.388C130.975 102.222 130.03 101.278 128.865 101.278ZM106.503 117.046C100.443 117.046 95.5311 112.134 95.5311 106.075C95.5311 100.015 100.443 95.1032 106.503 95.1032C112.562 95.1032 117.474 100.015 117.474 106.075C117.474 112.134 112.562 117.046 106.503 117.046Z" fill="#8AC6DD"/>
<path d="M109.19 131.367H103.817C102.201 131.367 100.886 130.053 100.886 128.436V128.254C98.7416 127.71 96.7006 126.86 94.8024 125.72L94.663 125.859C93.52 127.002 91.6617 127.002 90.5187 125.859L86.7191 122.059C85.5766 120.917 85.5766 119.057 86.7191 117.915L86.888 117.745C85.7702 115.852 84.9395 113.822 84.4112 111.692H84.1411C82.5251 111.692 81.2109 110.377 81.2109 108.761V103.387C81.2109 101.771 82.5251 100.457 84.1411 100.457H84.4698C85.0145 98.3556 85.8544 96.3535 86.9744 94.4892L86.7191 94.2338C85.5761 93.0914 85.5761 91.232 86.7191 90.0896L90.5187 86.2899C91.0722 85.7365 91.8077 85.4313 92.5909 85.4313C93.374 85.4313 94.1095 85.7365 94.663 86.2899L94.9544 86.5814C96.9095 85.48 99.5159 84.576 100.886 84.1588V83.712C100.886 82.0959 102.201 80.7812 103.817 80.7812H109.19C110.806 80.7812 112.12 82.0959 112.12 83.712V84.127C114.208 84.657 116.2 85.4784 118.058 86.5754L118.344 86.2894C118.897 85.7359 119.633 85.4313 120.416 85.4313C121.199 85.4313 121.935 85.7365 122.488 86.2899L126.288 90.0896C127.431 91.232 127.431 93.0914 126.288 94.2338L126.032 94.4892C127.152 96.3535 127.992 98.3556 128.537 100.457H128.865C130.481 100.457 131.796 101.771 131.796 103.387V108.761C131.796 110.377 130.481 111.692 128.865 111.692H128.595C128.067 113.822 127.236 115.852 126.119 117.745L126.288 117.915C127.43 119.057 127.43 120.917 126.288 122.059L122.488 125.859C121.345 127.002 119.487 127.002 118.344 125.859L118.204 125.72C116.306 126.86 114.265 127.71 112.12 128.254V128.436C112.12 130.053 110.806 131.367 109.19 131.367ZM94.6826 123.86C94.8347 123.86 94.9884 123.902 95.1251 123.989C97.2037 125.321 99.4782 126.269 101.885 126.806C102.26 126.889 102.527 127.222 102.527 127.606V128.437C102.527 129.149 103.106 129.727 103.817 129.727H109.19C109.902 129.727 110.48 129.149 110.48 128.437V127.606C110.48 127.222 110.746 126.889 111.122 126.806C113.529 126.269 115.804 125.321 117.882 123.989C118.208 123.781 118.632 123.829 118.904 124.1L119.504 124.7C120.007 125.202 120.825 125.202 121.328 124.7L125.128 120.9C125.631 120.397 125.631 119.578 125.128 119.075L124.502 118.449C124.231 118.178 124.183 117.755 124.387 117.432C125.695 115.356 126.622 113.09 127.142 110.698C127.223 110.32 127.557 110.051 127.944 110.051H128.865C129.576 110.051 130.155 109.473 130.155 108.761V103.387C130.155 102.676 129.575 102.097 128.865 102.097H127.893C127.51 102.097 127.178 101.833 127.093 101.46C126.552 99.0955 125.613 96.8588 124.301 94.8113C124.093 94.487 124.14 94.061 124.412 93.7887L125.128 93.0734C125.631 92.5702 125.631 91.7521 125.128 91.249L121.328 87.4493C120.841 86.9615 119.991 86.9615 119.504 87.4493L118.762 88.1914C118.491 88.4616 118.068 88.5097 117.744 88.3052C115.702 87.0178 113.473 86.0996 111.122 85.5746C110.747 85.4909 110.48 85.1584 110.48 84.774V83.7109C110.48 82.9994 109.902 82.4208 109.191 82.4208H103.817C103.106 82.4208 102.528 82.9994 102.528 83.7109V84.774C102.528 85.1448 102.279 85.4696 101.921 85.5659C100.604 85.9202 97.2442 87.0566 95.2634 88.3046C94.9397 88.5091 94.5175 88.461 94.2462 88.1909L93.5036 87.4488C93.0163 86.9604 92.1665 86.9609 91.6792 87.4482L87.8795 91.2479C87.3764 91.751 87.3764 92.5691 87.8795 93.0723L88.5948 93.7876C88.8672 94.0605 88.9137 94.4854 88.7053 94.8102C87.3944 96.8583 86.4549 99.095 85.9141 101.459C85.8293 101.832 85.4968 102.096 85.1145 102.096H84.1422C83.4307 102.096 82.8527 102.675 82.8527 103.386V108.76C82.8527 109.471 83.4312 110.05 84.1422 110.05H85.0642C85.4503 110.05 85.7839 110.319 85.8659 110.696C86.3855 113.089 87.313 115.355 88.6205 117.431C88.8245 117.754 88.777 118.177 88.5062 118.448L87.8801 119.074C87.3769 119.577 87.3769 120.396 87.8801 120.899L91.6798 124.699C92.1829 125.201 93.001 125.201 93.5041 124.699L94.1035 124.099C94.2599 123.942 94.4705 123.86 94.6826 123.86ZM106.503 117.866C100.002 117.866 94.7116 112.576 94.7116 106.074C94.7116 99.5724 100.002 94.2825 106.503 94.2825C113.005 94.2825 118.295 99.5724 118.295 106.074C118.295 112.577 113.005 117.866 106.503 117.866ZM106.503 95.9231C100.907 95.9231 96.3523 100.477 96.3523 106.074C96.3523 111.671 100.906 116.225 106.503 116.225C112.1 116.225 116.654 111.671 116.654 106.074C116.654 100.477 112.1 95.9231 106.503 95.9231Z" fill="#3A312A"/>
<path d="M130.398 53.0359C130.398 54.3102 129.901 55.5133 128.998 56.4156L104.635 80.7844H103.82C103.432 80.7844 103.066 80.8609 102.727 80.9977V73.3688L119.084 57.0117C121.271 54.8188 121.271 51.2695 119.084 49.082L99.8008 29.7992L104.477 25.1289L128.998 49.6508C129.901 50.5531 130.398 51.7563 130.398 53.0359Z" fill="#D34E5C"/>
<path d="M94.677 15.3281L90.0066 20.0039L82.8535 12.8508L84.1387 11.5602C85.0465 10.6578 86.2441 10.1602 87.5238 10.1602C88.8035 10.1602 90.0066 10.6578 90.909 11.5602L94.677 15.3281Z" fill="#D34E5C"/>
<path d="M95.8384 16.4902L91.1641 21.1592L98.637 28.6405L103.311 23.9715L95.8384 16.4902Z" fill="#695B51"/>
</svg>
